<svg version="1.1" id="Layer_1" xmlns="http://www.w3.org/2000/svg" xmlns:xlink="http://www.w3.org/1999/xlink" x="0px" y="0px"
	 width="100%" viewBox="0 0 96 96" enable-background="new 0 0 96 96" xml:space="preserve">
<path fill="#EF383A" opacity="1.000000" stroke="none" 
	d="
M97.000000,43.000000 
	C97.000000,47.024715 97.000000,51.049427 96.670082,55.738407 
	C96.198036,57.543995 96.212173,58.731533 95.890343,59.819706 
	C91.007584,76.329216 80.670662,88.000343 64.735680,94.591026 
	C62.250179,95.619026 59.583111,96.208008 57.000000,97.000000 
	C52.310444,97.000000 47.620884,97.000000 42.262478,96.669037 
	C30.711958,94.776299 21.486652,89.711182 14.339710,81.650124 
	C-1.489733,63.796055 -2.587408,39.420837 11.432735,20.349773 
	C17.673256,11.861033 25.983419,5.983547 36.550934,3.684442 
	C39.425884,3.058958 42.186768,1.909162 45.000000,1.000000 
	C47.700020,1.000000 50.400043,1.000000 53.747467,1.328247 
	C68.862122,4.544635 81.406700,10.777982 89.087440,23.881386 
	C92.542206,29.775219 94.411377,36.598469 97.000000,43.000000 
M34.715233,48.143776 
	C30.076197,56.482975 25.437160,64.822174 20.487513,73.719734 
	C28.289204,73.567207 33.779541,70.722847 38.687935,66.039619 
	C40.354561,64.449448 43.058651,63.180908 45.326645,63.117172 
	C56.048630,62.815876 66.783768,62.982765 78.430466,62.982765 
	C71.376564,50.298988 64.865540,38.379066 58.116920,26.595207 
	C56.265865,23.363045 48.164997,24.063204 46.231266,27.457632 
	C42.446198,34.101841 38.779011,40.813202 34.715233,48.143776 
z"/>
<path fill="#47704C" opacity="1.000000" stroke="none" 
	d="
M44.531342,1.000000 
	C42.186768,1.909162 39.425884,3.058958 36.550934,3.684442 
	C25.983419,5.983547 17.673256,11.861033 11.432735,20.349773 
	C-2.587408,39.420837 -1.489733,63.796055 14.339710,81.650124 
	C21.486652,89.711182 30.711958,94.776299 41.796814,96.669037 
	C28.366442,97.000000 14.732885,97.000000 1.049664,97.000000 
	C1.049664,65.110695 1.049664,33.221298 1.049664,1.000000 
	C15.352522,1.000000 29.707603,1.000000 44.531342,1.000000 
z"/>
<path fill="#47704C" opacity="1.000000" stroke="none" 
	d="
M97.000000,42.531342 
	C94.411377,36.598469 92.542206,29.775219 89.087440,23.881386 
	C81.406700,10.777982 68.862122,4.544635 54.197433,1.328247 
	C68.259155,1.000000 82.518303,1.000000 97.000000,1.000000 
	C97.000000,14.686758 97.000000,28.374720 97.000000,42.531342 
z"/>
<path fill="#47704C" opacity="1.000000" stroke="none" 
	d="
M57.468658,97.000000 
	C59.583111,96.208008 62.250179,95.619026 64.735680,94.591026 
	C80.670662,88.000343 91.007584,76.329216 95.890343,59.819706 
	C96.212173,58.731533 96.198036,57.543995 96.670082,56.201336 
	C97.000000,69.592422 97.000000,83.184845 97.000000,97.000000 
	C83.979950,97.000000 70.958633,97.000000 57.468658,97.000000 
z"/>
<path fill="#FFF9F9" opacity="1.000000" stroke="none" 
	d="
M34.889130,47.820274 
	C38.779011,40.813202 42.446198,34.101841 46.231266,27.457632 
	C48.164997,24.063204 56.265865,23.363045 58.116920,26.595207 
	C64.865540,38.379066 71.376564,50.298988 78.430466,62.982765 
	C66.783768,62.982765 56.048630,62.815876 45.326645,63.117172 
	C43.058651,63.180908 40.354561,64.449448 38.687935,66.039619 
	C33.779541,70.722847 28.289204,73.567207 20.487513,73.719734 
	C25.437160,64.822174 30.076197,56.482975 34.889130,47.820274 
M50.139374,45.687092 
	C48.916271,47.971844 47.693169,50.256596 46.435123,52.606625 
	C50.367676,52.606625 53.787079,52.606625 58.026394,52.606625 
	C55.989243,48.989021 54.280243,45.954151 52.273876,42.391216 
	C51.383846,43.736153 50.944580,44.399929 50.139374,45.687092 
z"/>
<path fill="#F14B4C" opacity="1.000000" stroke="none" 
	d="
M50.322346,45.375397 
	C50.944580,44.399929 51.383846,43.736153 52.273876,42.391216 
	C54.280243,45.954151 55.989243,48.989021 58.026394,52.606625 
	C53.787079,52.606625 50.367676,52.606625 46.435123,52.606625 
	C47.693169,50.256596 48.916271,47.971844 50.322346,45.375397 
z"/>
</svg>