<?xml version="1.0" encoding="UTF-8"?>
<!DOCTYPE svg PUBLIC "-//W3C//DTD SVG 1.1//EN" "http://www.w3.org/Graphics/SVG/1.1/DTD/svg11.dtd">
<svg xmlns="http://www.w3.org/2000/svg" version="1.1" width="96px" height="96px" style="shape-rendering:geometricPrecision; text-rendering:geometricPrecision; image-rendering:optimizeQuality; fill-rule:evenodd; clip-rule:evenodd" xmlns:xlink="http://www.w3.org/1999/xlink">
<g><path style="opacity:1" fill="#ef393a" d="M 43.5,-0.5 C 46.5,-0.5 49.5,-0.5 52.5,-0.5C 76.0457,4.04544 90.379,18.0454 95.5,41.5C 95.5,45.8333 95.5,50.1667 95.5,54.5C 90.2449,76.088 76.9116,89.7547 55.5,95.5C 50.5,95.5 45.5,95.5 40.5,95.5C 11.5634,87.6749 -1.60327,68.6749 1,38.5C 6.96465,16.4531 21.1313,3.45314 43.5,-0.5 Z"/></g>
<g><path style="opacity:1" fill="#fff9f9" d="M 40.5,61.5 C 41.4408,59.9505 42.1075,58.2838 42.5,56.5C 40.7497,57.6594 39.7497,59.326 39.5,61.5C 34.6056,68.614 27.939,71.9474 19.5,71.5C 27.9129,55.6724 36.5796,40.0058 45.5,24.5C 49.1667,23.1667 52.8333,23.1667 56.5,24.5C 63.1667,36.5 69.8333,48.5 76.5,60.5C 64.5185,61.499 52.5185,61.8323 40.5,61.5 Z"/></g>
<g><path style="opacity:1" fill="#f04140" d="M 55.5,49.5 C 52.5,50.8333 49.5,50.8333 46.5,49.5C 49.2386,39.0172 52.2386,39.0172 55.5,49.5 Z"/></g>
<g><path style="opacity:1" fill="#f57d7d" d="M 46.5,49.5 C 49.5,50.8333 52.5,50.8333 55.5,49.5C 56.0431,49.56 56.3764,49.8933 56.5,50.5C 52.8333,51.1667 49.1667,51.8333 45.5,52.5C 44.9649,54.261 43.9649,55.5943 42.5,56.5C 43.0787,53.6689 44.412,51.3356 46.5,49.5 Z"/></g>
<g><path style="opacity:1" fill="#f79191" d="M 42.5,56.5 C 42.1075,58.2838 41.4408,59.9505 40.5,61.5C 40.1667,61.5 39.8333,61.5 39.5,61.5C 39.7497,59.326 40.7497,57.6594 42.5,56.5 Z"/></g>
</svg>
