<svg width="1588" height="864" viewBox="0 0 1588 864" fill="none" xmlns="http://www.w3.org/2000/svg">
<rect x="0.0818418" y="0.0818418" width="1587.84" height="863.836" rx="13.8313" fill="#0D0D0D"/>
<rect x="0.0818418" y="0.0818418" width="1587.84" height="863.836" rx="13.8313" fill="url(#paint0_linear_0_1)" fill-opacity="0.2"/>
<rect x="0.0818418" y="0.0818418" width="1587.84" height="863.836" rx="13.8313" stroke="#202020" stroke-width="0.163684"/>
<g filter="url(#filter0_i_0_1)">
<path d="M790.28 849.28H792.56L792.02 852.72C792.007 852.8 792 852.873 792 852.94C792 853.207 792.22 853.34 792.66 853.34C792.94 853.34 793.133 853.3 793.24 853.22C793.36 853.14 793.44 852.973 793.48 852.72L793.78 850.88C793.807 850.707 793.82 850.533 793.82 850.36C793.82 849.867 793.36 848.96 792.44 847.64C791.52 846.307 791.06 845.32 791.06 844.68C791.06 844.48 791.093 844.167 791.16 843.74L791.48 841.8C791.64 840.827 792.007 840.173 792.58 839.84C793.033 839.587 793.793 839.46 794.86 839.46C795.7 839.46 796.307 839.533 796.68 839.68C797.28 839.92 797.58 840.387 797.58 841.08C797.58 841.28 797.553 841.547 797.5 841.88L797 845H794.7L795.2 841.88C795.213 841.8 795.22 841.727 795.22 841.66C795.22 841.393 795.007 841.26 794.58 841.26C794.287 841.26 794.08 841.3 793.96 841.38C793.853 841.46 793.78 841.627 793.74 841.88L793.46 843.66C793.433 843.833 793.42 843.96 793.42 844.04C793.42 844.453 793.88 845.34 794.8 846.7C795.72 848.047 796.18 849.08 796.18 849.8C796.18 850.067 796.153 850.367 796.1 850.7L795.76 852.8C795.6 853.773 795.233 854.427 794.66 854.76C794.207 855.013 793.447 855.14 792.38 855.14C791.54 855.14 790.933 855.067 790.56 854.92C789.96 854.68 789.66 854.213 789.66 853.52C789.66 853.32 789.687 853.053 789.74 852.72L790.28 849.28ZM803.107 839.6H805.427L801.187 855H797.727L798.427 839.6H800.707L799.967 852.04H800.027L803.107 839.6ZM803.739 855L806.179 839.6H808.799C809.573 839.6 810.173 839.647 810.599 839.74C811.413 839.927 811.819 840.48 811.819 841.4C811.819 841.773 811.666 842.927 811.359 844.86C811.226 845.673 811.106 846.273 810.999 846.66C810.773 847.433 810.479 847.933 810.119 848.16C809.906 848.293 809.659 848.393 809.379 848.46L810.079 855H807.699L807.099 848.44H807.059L806.019 855H803.739ZM808.159 841.44L807.319 846.74H808.159C808.279 846.74 808.379 846.72 808.459 846.68C808.659 846.573 808.839 846.02 808.999 845.02L809.339 842.92C809.406 842.493 809.439 842.173 809.439 841.96C809.439 841.613 809.313 841.44 809.059 841.44H808.159ZM815.502 841.58L814.562 847.54H815.262C815.595 847.54 815.822 847.42 815.942 847.18C815.995 847.073 816.055 846.807 816.122 846.38L816.702 842.76C816.755 842.427 816.782 842.213 816.782 842.12C816.782 841.76 816.589 841.58 816.202 841.58H815.502ZM813.382 855H811.082L813.522 839.6H817.202C817.909 839.6 818.395 839.68 818.662 839.84C819.022 840.067 819.202 840.507 819.202 841.16C819.202 841.44 819.149 841.92 819.042 842.6L818.422 846.52C818.262 847.56 818.042 848.287 817.762 848.7C817.482 849.1 817.055 849.347 816.482 849.44C816.189 849.493 815.442 849.52 814.242 849.52L813.382 855Z" fill="#494949"/>
</g>
<g filter="url(#filter1_i_0_1)">
<path fill-rule="evenodd" clip-rule="evenodd" d="M777 843.089C776.214 843.089 775.623 843.725 775.623 844.452C775.623 845.179 776.214 845.815 777 845.815V848.185C774.997 848.185 773.328 846.539 773.328 844.452C773.328 842.364 774.997 840.719 777 840.719V843.089Z" fill="#494949"/>
<path fill-rule="evenodd" clip-rule="evenodd" d="M777 848.185C777.786 848.185 778.377 848.821 778.377 849.548C778.377 850.275 777.786 850.911 777 850.911V853.281C779.003 853.281 780.672 851.636 780.672 849.548C780.672 847.461 779.003 845.815 777 845.815V848.185Z" fill="#494949"/>
<path fill-rule="evenodd" clip-rule="evenodd" d="M777 841.37C774.385 841.37 772.295 843.523 772.295 846.141C772.295 848.759 774.385 850.911 777 850.911V853.281C773.15 853.281 770 850.101 770 846.141C770 842.181 773.15 839 777 839V841.37Z" fill="#494949"/>
<path fill-rule="evenodd" clip-rule="evenodd" d="M777 852.63C779.615 852.63 781.705 850.477 781.705 847.859C781.705 845.241 779.615 843.089 777 843.089V840.719C780.85 840.719 784 843.899 784 847.859C784 851.819 780.85 855 777 855V852.63Z" fill="#494949"/>
</g>
<defs>
<filter id="filter0_i_0_1" x="789.66" y="839.46" width="29.541" height="15.6797" filterUnits="userSpaceOnUse" color-interpolation-filters="sRGB">
<feFlood flood-opacity="0" result="BackgroundImageFix"/>
<feBlend mode="normal" in="SourceGraphic" in2="BackgroundImageFix" result="shape"/>
<feColorMatrix in="SourceAlpha" type="matrix" values="0 0 0 0 0 0 0 0 0 0 0 0 0 0 0 0 0 0 127 0" result="hardAlpha"/>
<feOffset dx="0.5" dy="0.5"/>
<feComposite in2="hardAlpha" operator="arithmetic" k2="-1" k3="1"/>
<feColorMatrix type="matrix" values="0 0 0 0 1 0 0 0 0 1 0 0 0 0 1 0 0 0 0.35 0"/>
<feBlend mode="overlay" in2="shape" result="effect1_innerShadow_0_1"/>
</filter>
<filter id="filter1_i_0_1" x="770" y="839" width="14" height="16" filterUnits="userSpaceOnUse" color-interpolation-filters="sRGB">
<feFlood flood-opacity="0" result="BackgroundImageFix"/>
<feBlend mode="normal" in="SourceGraphic" in2="BackgroundImageFix" result="shape"/>
<feColorMatrix in="SourceAlpha" type="matrix" values="0 0 0 0 0 0 0 0 0 0 0 0 0 0 0 0 0 0 127 0" result="hardAlpha"/>
<feOffset dx="0.5" dy="0.5"/>
<feComposite in2="hardAlpha" operator="arithmetic" k2="-1" k3="1"/>
<feColorMatrix type="matrix" values="0 0 0 0 1 0 0 0 0 1 0 0 0 0 1 0 0 0 0.35 0"/>
<feBlend mode="overlay" in2="shape" result="effect1_innerShadow_0_1"/>
</filter>
<linearGradient id="paint0_linear_0_1" x1="794" y1="0" x2="794" y2="864" gradientUnits="userSpaceOnUse">
<stop/>
<stop offset="0.100671" stop-color="#2D2D2D" stop-opacity="0.899329"/>
<stop offset="0.832215" stop-color="#2D2D2D" stop-opacity="0.167785"/>
<stop offset="1" stop-color="#0D0D0D" stop-opacity="0"/>
</linearGradient>
</defs>
</svg>
